<?xml version="1.0" encoding="UTF-8" standalone="no"?>
<svg
   xmlns:dc="http://purl.org/dc/elements/1.1/"
   xmlns:cc="http://creativecommons.org/ns#"
   xmlns:rdf="http://www.w3.org/1999/02/22-rdf-syntax-ns#"
   xmlns:svg="http://www.w3.org/2000/svg"
   xmlns="http://www.w3.org/2000/svg"
   xmlns:sodipodi="http://sodipodi.sourceforge.net/DTD/sodipodi-0.dtd"
   xmlns:inkscape="http://www.inkscape.org/namespaces/inkscape"
   inkscape:version="1.0 (4035a4fb49, 2020-05-01)"
   sodipodi:docname="shapes.svg"
   id="svg20"
   version="1.1"
   height="411.48135"
   width="227.23">
  <metadata
     id="metadata26">
    <rdf:RDF>
      <cc:Work
         rdf:about="">
        <dc:format>image/svg+xml</dc:format>
        <dc:type
           rdf:resource="http://purl.org/dc/dcmitype/StillImage" />
        <dc:title></dc:title>
      </cc:Work>
    </rdf:RDF>
  </metadata>
  <defs
     id="defs24" />
  <sodipodi:namedview
     inkscape:current-layer="svg20"
     inkscape:window-maximized="1"
     inkscape:window-y="288"
     inkscape:window-x="1920"
     inkscape:cy="332.69152"
     inkscape:cx="354.63824"
     inkscape:zoom="1.2586501"
     fit-margin-bottom="0"
     fit-margin-right="0"
     fit-margin-left="0"
     fit-margin-top="0"
     showgrid="false"
     id="namedview22"
     inkscape:window-height="1027"
     inkscape:window-width="1920"
     inkscape:pageshadow="2"
     inkscape:pageopacity="0"
     guidetolerance="10"
     gridtolerance="10"
     objecttolerance="10"
     borderopacity="1"
     bordercolor="#666666"
     pagecolor="#ffffff" />
  <g
     transform="rotate(90,71.403826,121.59617)"
     id="g18"
     fill-rule="evenodd"
     fill="none">
    <path
       id="path2"
       d="M 61.905,-34.23 158.099,20.28 91.117,74.792 22,34.887 Z"
       style="mix-blend-mode:multiply"
       fill="#f04141" />
    <circle
       id="circle4"
       r="57.5"
       cy="135.5"
       cx="155.5"
       style="mix-blend-mode:multiply"
       fill="#10dc60" />
    <path
       id="path6"
       d="M 208.538,9.513 292.955,24.905 223.93,93.93 Z"
       style="mix-blend-mode:multiply"
       fill="#3880ff" />
    <path
       id="path8"
       d="m 268.625,106.557 46.332,-26.75 46.332,26.75 v 53.5 l -46.332,26.75 -46.332,-26.75 z"
       style="mix-blend-mode:multiply"
       fill="#ffce00" />
    <circle
       id="circle10"
       r="38.5"
       cy="9.5"
       cx="299.5"
       style="mix-blend-mode:multiply"
       fill="#7044ff" />
    <rect
       id="rect12"
       rx="5.098"
       height="89.884003"
       width="10.196"
       y="-7.0560002"
       x="143.37199"
       transform="rotate(-60,148.47,37.886)"
       style="mix-blend-mode:multiply"
       fill="#11d3ea" />
    <path
       id="path14"
       style="mix-blend-mode:multiply"
       fill="#7044ff"
       d="m -25.389,74.253 84.86,8.107 c 5.498,0.525 9.53,5.407 9.004,10.905 a 10,10 0 0 1 -0.057,0.477 l -12.36,85.671 a 10.002,10.002 0 0 1 -11.634,8.42 l -86.351,-15.226 c -5.44,-0.959 -9.07,-6.145 -8.112,-11.584 l 13.851,-78.551 a 10,10 0 0 1 10.799,-8.219 z" />
    <circle
       id="circle16"
       r="20.5"
       cy="106.5"
       cx="273.5"
       style="mix-blend-mode:multiply"
       fill="#0cd1e8" />
  </g>
</svg>
